#!OML:ASF X:\für Bonn\!DataBase\2005_08_10_Bjorn_Final\c3d\bjorn.ASF
:FULLY-SPECIFIED
:DEGREES
77
root -17.3999 19.255 -0.341684 1451.22 -87.7783 -13.5922
lowerback -5.29484 6.55625 -2.51229
upperback 6.84031 9.37082 -5.58846
thorax 10.8862 4.50613 -3.24949
lowerneck -2.77682 -9.50371 0.0812092
upperneck 2.57717 -12.9008 5.06738
head 1.62372 -6.37183 1.2486
rclavicle 4.01545e-014 -2.70347e-014
rhumerus 25.3429 -4.95556 -76.4055
rradius 79.9289
rwrist -21.1521
rhand -29.7593 17.787
rfingers 7.12502
rthumb -3.08505 -12.1705
lclavicle 4.01545e-014 -2.70347e-014
lhumerus -25.0702 -3.45046 85.1923
lradius 24.3294
lwrist -15.5568
lhand -23.6899 -9.04313
lfingers 7.12502
lthumb 2.77688 20.9185
rfemur -0.182312 -1.52328 13.9506
rtibia 47.2321
rfoot -3.22289 13.1648
rtoes -11.4382
lfemur -17.0926 5.20823 -19.2205
ltibia 30.4216
lfoot -3.56295 -9.14192
ltoes -4.84771
78
root -17.4877 19.2685 -0.330993 1450.09 -87.5842 -12.4219
lowerback -5.26456 6.56715 -2.61902
upperback 6.8205 9.39545 -5.65665
thorax 10.8427 4.51261 -3.26582
lowerneck -2.74185 -9.59071 0.131204
upperneck 2.65364 -13.0247 5.10112
head 1.64481 -6.43187 1.2471
rclavicle -6.0033e-014 3.49861e-014
rhumerus 26.5069 -5.85076 -75.9538
rradius 79.3528
rwrist -20.9589
rhand -30.0583 18.1115
rfingers 7.12502
rthumb -3.37376 -11.8415
lclavicle -6.0033e-014 3.49861e-014
lhumerus -24.8275 -3.57736 85.2082
lradius 24.6632
lwrist -14.937
lhand -24.3296 -9.03735
lfingers 7.12502
lthumb 2.15904 20.9315
rfemur -0.681562 -1.75547 13.9855
rtibia 46.7444
rfoot -4.38287 13.1318
rtoes -11.3189
lfemur -16.7388 5.17572 -19.251
ltibia 30.2234
lfoot -3.67873 -9.28809
ltoes -4.37999
79
root -17.5723 19.2773 -0.320452 1450.25 -87.3456 -12.5386
lowerback -5.20226 6.57838 -2.62186
upperback 6.76624 9.40881 -5.74916
thorax 10.7628 4.52469 -3.37029
lowerneck -2.60551 -9.68653 0.237281
upperneck 2.67186 -13.1589 5.15021
head 1.62702 -6.49949 1.2483
rclavicle 5.92378e-014 -3.49861e-014
rhumerus 27.6424 -6.779 -75.5231
rradius 78.6053
rwrist -20.7273
rhand -30.2185 18.3448
rfingers 7.12502
rthumb -3.52849 -11.6058
lclavicle 5.92378e-014 -3.49861e-014
lhumerus -24.6535 -3.81739 85.1876
lradius 24.9944
lwrist -14.2964
lhand -24.9745 -9.05091
lfingers 7.12502
lthumb 1.53624 20.9233
rfemur -1.142 -1.97794 14.1043
rtibia 46.1612
rfoot -5.5644 13.0721
rtoes -11.2118
lfemur -16.4535 5.10234 -19.2158
ltibia 30.1046
lfoot -3.80837 -9.41719
ltoes -4.00279
80
root -17.6545 19.2842 -0.310538 1450.05 -87.1106 -12.2745
lowerback -5.16795 6.59074 -2.65301
upperback 6.70491 9.42767 -5.83835
thorax 10.6866 4.53673 -3.45234
lowerneck -2.43991 -9.77309 0.368394
upperneck 2.67684 -13.2795 5.18931
head 1.59691 -6.5611 1.24516
rclavicle -9.74045e-014 -1.90833e-014
rhumerus 28.7818 -7.70161 -75.0805
rradius 77.7737
rwrist -20.3971
rhand -30.3223 18.2877
rfingers 7.12502
rthumb -3.62869 -11.6612
lclavicle -9.74045e-014 -1.90833e-014
lhumerus -24.4731 -3.99053 85.1775
lradius 25.2846
lwrist -13.749
lhand -25.6527 -9.01594
lfingers 7.12502
lthumb 0.881184 20.962
rfemur -1.59408 -2.18087 14.2054
rtibia 45.5094
rfoot -6.74307 13.0315
rtoes -11.8406
lfemur -16.2297 5.05987 -19.2014
ltibia 30.0442
lfoot -3.96506 -9.60031
ltoes -3.56039
81
root -17.735 19.2907 -0.301254 1449.74 -86.8538 -11.9221
lowerback -5.11694 6.6124 -2.67077
upperback 6.64675 9.45773 -5.94794
thorax 10.6114 4.5561 -3.56359
lowerneck -2.25761 -9.88325 0.546594
upperneck 2.67191 -13.4329 5.24108
head 1.55915 -6.63925 1.2392
rclavicle -3.97569e-014 6.04305e-014
rhumerus 29.8314 -8.66781 -74.6826
rradius 76.9993
rwrist -19.9927
rhand -30.3494 18.227
rfingers 7.12502
rthumb -3.65484 -11.7214
lclavicle -3.97569e-014 6.04305e-014
lhumerus -24.3028 -4.21372 85.1504
lradius 25.5694
lwrist -13.1861
lhand -26.2703 -8.84155
lfingers 7.12502
lthumb 0.284704 21.138
rfemur -2.00953 -2.39858 14.3003
rtibia 44.7974
rfoot -7.95363 13.0242
rtoes -12.8766
lfemur -16.0258 4.96958 -19.18
ltibia 30.0308
lfoot -4.1143 -9.74995
ltoes -2.93996
82
root -17.8147 19.2966 -0.292356 1449.61 -86.6201 -11.7466
lowerback -5.05241 6.63498 -2.69757
upperback 6.56869 9.4862 -6.03726
thorax 10.5 4.57387 -3.65055
lowerneck -2.01174 -9.98001 0.69139
upperneck 2.67175 -13.5633 5.26415
head 1.5116 -6.70744 1.23401
rclavicle -4.85035e-014 6.67916e-014
rhumerus 30.8202 -9.58583 -74.3338
rradius 76.1957
rwrist -19.5356
rhand -30.358 18.1849
rfingers 7.12502
rthumb -3.66319 -11.7634
lclavicle -4.85035e-014 6.67916e-014
lhumerus -24.2313 -4.44421 85.1575
lradius 25.8884
lwrist -12.6709
lhand -26.9588 -8.59077
lfingers 7.12502
lthumb -0.380277 21.3886
rfemur -2.42394 -2.55734 14.3986
rtibia 44.0559
rfoot -9.12419 12.9827
rtoes -14.0994
lfemur -15.8227 4.91563 -19.157
ltibia 30.0392
lfoot -4.28728 -9.90693
ltoes -2.3913
83
root -17.892 19.3 -0.283513 1449.78 -86.3705 -11.8776
lowerback -4.9915 6.65893 -2.6639
upperback 6.51318 9.5144 -6.15298
thorax 10.4322 4.59668 -3.79737
lowerneck -1.90998 -10.0634 0.918262
upperneck 2.74936 -13.686 5.27948
head 1.50667 -6.76711 1.20441
rclavicle -7.95139e-016 4.92986e-014
rhumerus 31.7956 -10.5003 -73.9825
rradius 75.3185
rwrist -19.156
rhand -30.3504 18.3137
rfingers 7.12502
rthumb -3.65587 -11.6347
lclavicle -7.95139e-016 4.92986e-014
lhumerus -24.1046 -4.70378 85.1314
lradius 26.2084
lwrist -12.1129
lhand -27.5867 -8.14523
lfingers 7.12502
lthumb -0.986764 21.8322
rfemur -2.82952 -2.71802 14.522
rtibia 43.277
rfoot -10.1171 12.9589
rtoes -14.9051
lfemur -15.6405 4.86827 -19.1156
ltibia 30.0746
lfoot -4.47747 -10.0922
ltoes -2.12663
84
root -17.9683 19.3017 -0.275591 1449.62 -86.1258 -11.6658
lowerback -4.96901 6.68714 -2.67608
upperback 6.45837 9.55454 -6.25731
thorax 10.3792 4.62056 -3.90135
lowerneck -1.78042 -10.1508 1.11361
upperneck 2.83787 -13.812 5.2934
head 1.50266 -6.82877 1.18056
rclavicle -1.55052e-014 6.52014e-014
rhumerus 32.7521 -11.3792 -73.6076
rradius 74.3038
rwrist -18.7714
rhand -30.322 18.5592
rfingers 7.12502
rthumb -3.6284 -11.3897
lclavicle -1.55052e-014 6.52014e-014
lhumerus -24.0055 -4.98439 85.1368
lradius 26.533
lwrist -11.5615
lhand -28.2152 -7.67221
lfingers 7.12502
lthumb -1.59379 22.3016
rfemur -3.23556 -2.84049 14.6193
rtibia 42.5001
rfoot -10.9849 12.9507
rtoes -15.3681
lfemur -15.4752 4.82199 -19.0912
ltibia 30.1034
lfoot -4.63669 -10.2701
ltoes -1.66953
85
root -18.0439 19.3045 -0.268586 1449.85 -85.9011 -11.8549
lowerback -4.97352 6.71973 -2.65959
upperback 6.43248 9.60144 -6.3495
thorax 10.3781 4.64857 -4.00286
lowerneck -1.66674 -10.2278 1.29719
upperneck 2.88759 -13.9225 5.32367
head 1.49065 -6.88328 1.1643
rclavicle 9.93923e-015 4.77083e-015
rhumerus 33.7044 -12.1951 -73.1774
rradius 73.2039
rwrist -18.3823
rhand -30.3172 18.934
rfingers 7.12502
rthumb -3.62382 -11.0149
lclavicle 9.93923e-015 4.77083e-015
lhumerus -23.9319 -5.33166 85.1605
lradius 26.9568
lwrist -10.9543
lhand -28.5742 -7.14503
lfingers 7.12502
lthumb -1.94051 22.8259
rfemur -3.59957 -2.94393 14.7377
rtibia 41.721
rfoot -11.8667 12.939
rtoes -15.7643
lfemur -15.294 4.81184 -19.0395
ltibia 30.1321
lfoot -4.82541 -10.4504
ltoes -1.43161
86
root -18.1194 19.3093 -0.261898 1450.03 -85.6642 -12.0058
lowerback -4.9873 6.75054 -2.65106
upperback 6.42387 9.64803 -6.43628
thorax 10.3999 4.67509 -4.09281
lowerneck -1.59999 -10.3122 1.53948
upperneck 2.94941 -14.0432 5.29208
head 1.48098 -6.94193 1.11769
rclavicle 3.33958e-014 3.33958e-014
rhumerus 34.6481 -12.969 -72.7286
rradius 71.9751
rwrist -18.0221
rhand -30.3064 19.41
rfingers 7.12502
rthumb -3.61339 -10.5391
lclavicle 3.33958e-014 3.33958e-014
lhumerus -23.8719 -5.69349 85.1851
lradius 27.4126
lwrist -10.3374
lhand -28.7709 -6.66897
lfingers 7.12502
lthumb -2.13045 23.3001
rfemur -3.95433 -3.0265 14.8532
rtibia 40.96
rfoot -12.7864 12.9256
rtoes -15.9451
lfemur -15.0846 4.75423 -18.9858
ltibia 30.1307
lfoot -5.01708 -10.6065
ltoes -1.33277
87
root -18.194 19.3161 -0.25684 1450.32 -85.4492 -12.241
lowerback -5.04465 6.7808 -2.64437
upperback 6.41103 9.69755 -6.52429
thorax 10.4433 4.7025 -4.178
lowerneck -1.52091 -10.3857 1.73773
upperneck 2.997 -14.1497 5.32068
head 1.47256 -6.99379 1.09743
rclavicle -1.18873e-013 9.54166e-015
rhumerus 35.5599 -13.6605 -72.2128
rradius 70.6841
rwrist -17.7449
rhand -30.299 19.8931
rfingers 7.12502
rthumb -3.60625 -10.0561
lclavicle -1.18873e-013 9.54166e-015
lhumerus -23.8592 -6.13093 85.2153
lradius 27.9061
lwrist -9.66852
lhand -28.9883 -6.28849
lfingers 7.12502
lthumb -2.34038 23.6784
rfemur -4.35312 -3.0384 14.9858
rtibia 40.2025
rfoot -13.6942 12.9036
rtoes -15.9177
lfemur -14.9081 4.75964 -18.9234
ltibia 30.1121
lfoot -5.16078 -10.8084
ltoes -1.04276
88
root -18.2675 19.3221 -0.252126 1450.28 -85.2157 -12.1765
lowerback -5.07335 6.79937 -2.66376
upperback 6.39991 9.73082 -6.60884
thorax 10.4651 4.72011 -4.25105
lowerneck -1.42467 -10.4605 1.99994
upperneck 3.04938 -14.2546 5.27075
head 1.45112 -7.04531 1.04541
rclavicle -3.97569e-014 7.4743e-014
rhumerus 36.3783 -14.2587 -71.6222
rradius 69.3492
rwrist -17.4901
rhand -30.264 20.2665
rfingers 7.12502
rthumb -3.57239 -9.68333
lclavicle -3.97569e-014 7.4743e-014
lhumerus -23.9155 -6.54756 85.2429
lradius 28.3833
lwrist -9.09389
lhand -29.2481 -6.0702
lfingers 7.12502
lthumb -2.59131 23.8938
rfemur -4.69917 -3.05185 15.0932
rtibia 39.4405
rfoot -14.6005 12.9126
rtoes -15.8486
lfemur -14.6933 4.73806 -18.8839
ltibia 30.0807
lfoot -5.33047 -10.9735
ltoes -1.01594
89
root -18.3386 19.3262 -0.247866 1450.47 -84.9778 -12.3266
lowerback -5.09388 6.80936 -2.65729
upperback 6.37916 9.74856 -6.67962
thorax 10.4716 4.73219 -4.32668
lowerneck -1.27326 -10.5315 2.1387
upperneck 3.06359 -14.35 5.2957
head 1.42355 -7.09417 1.03884
rclavicle -3.18055e-015 -3.49861e-014
rhumerus 37.1598 -14.7642 -70.9781
rradius 67.954
rwrist -17.1978
rhand -30.1149 20.3734
rfingers 7.12502
rthumb -3.42838 -9.57873
lclavicle -3.18055e-015 -3.49861e-014
lhumerus -24.0194 -6.9282 85.2767
lradius 28.8533
lwrist -8.55966
lhand -29.3836 -5.98802
lfingers 7.12502
lthumb -2.7222 23.9744
rfemur -5.04526 -3.01641 15.2202
rtibia 38.6722
rfoot -15.4594 12.9111
rtoes -15.6832
lfemur -14.5073 4.79124 -18.8243
ltibia 30.0656
lfoot -5.50546 -11.2025
ltoes -1.12423
